<?xml version="1.0" encoding="utf-8"?>
<?xml-stylesheet type="text/xsl" href="rss1.xsl"?>
<rss version="2.0" xmlns:atom="http://www.w3.org/2005/Atom" xmlns:content="http://purl.org/rss/1.0/modules/content/" xmlns:dc="http://purl.org/dc/elements/1.1/" xmlns:media="http://search.yahoo.com/mrss/">
<channel>
 <title>Getty</title>
 <link>http://www.gettyimg.com/</link>
 <atom:link href="http://www.gettyimg.com/" rel="self" type="application/rss+xml" />

 
                <item>
                <title><![CDATA[【MASTER &amp; MASTER RIP】MASTER - Spica - You Don't Love Me [Master 1080]]]></title>
                <link><![CDATA[https://sharemania.us/threads/spica-you-dont-love-me-master-1080.239625/]]></link>
                <description><![CDATA[<article>
<blockquote class="messageText SelectQuoteContainer ugc baseHtml">
<div style="text-align: center"><img src="https://i.ibb.co/zhtSYZ2/20240309221556.gif" class="bbCodeImage LbImage" alt="[​IMG]" data-url="https://i.ibb.co/zhtSYZ2/20240309221556.gif" style=""><br>
​</div>
<div class="ToggleTriggerAnchor bbCodeSpoilerContainer">
<button type="button" class="button bbCodeSpoilerButton ToggleTrigger Tooltip JsOnly" data-target="> .SpoilerTarget"><span>Spoiler: <span class="SpoilerTitle">MASTER</span></span></button>
<div class="SpoilerTarget bbCodeSpoilerText">
<div class="bbCodeBlock bbCodeCode">
<div class="type">Code:</div>
<pre>General
Complete name                            : Spica - You Don't Love Me.mov
Format                                   : MPEG-4
Format profile                           : QuickTime
Codec ID                                 : qt   2005.03 (qt  )
File size                                : 3.28 GiB
Duration                                 : 4 min 0 s
Overall bit rate mode                    : Variable
Overall bit rate                         : 117 Mb/s
Frame rate                               : 23.976 FPS
Encoded date                             : 2014-02-06 12:42:55 UTC
Tagged date                              : 2014-02-06 12:54:54 UTC
Writing library                          : Apple QuickTime
TIM                                      : 00:00:00:00
TSC                                      : 2997
TSZ                                      : 125

Video
ID                                       : 1
Format                                   : AVC
Format/Info                              : Advanced Video Codec
Format profile                           : Main@L5.1
Format settings                          : 2 Ref Frames
Format settings, CABAC                   : No
Format settings, Reference frames        : 2 frames
Format settings, GOP                     : N=1
Format settings, Slice count             : 8 slices per frame
Codec ID                                 : avc1
Codec ID/Info                            : Advanced Video Coding
Duration                                 : 4 min 0 s
Bit rate mode                            : Variable
Bit rate                                 : 114 Mb/s
Width                                    : 1 920 pixels
Height                                   : 816 pixels
Display aspect ratio                     : 2.35:1
Frame rate mode                          : Constant
Frame rate                               : 23.976 (24000/1001) FPS
Color space                              : YUV
Chroma subsampling                       : 4:2:0
Bit depth                                : 8 bits
Scan type                                : Progressive
Bits/(Pixel*Frame)                       : 3.026
Stream size                              : 3.24 GiB (99%)
Language                                 : English
Encoded date                             : 2014-02-06 12:42:55 UTC
Tagged date                              : 2014-02-06 12:54:54 UTC
Color range                              : Limited
Color primaries                          : BT.709
Transfer characteristics                 : BT.709
Matrix coefficients                      : BT.709
Codec configuration box                  : avcC

Audio
ID                                       : 2
Format                                   : PCM
Format settings                          : Little / Signed
Codec ID                                 : sowt
Duration                                 : 4 min 0 s
Source duration                          : 4 min 0 s
Bit rate mode                            : Constant
Bit rate                                 : 1 536 kb/s
Channel(s)                               : 2 channels
Channel layout                           : L R
Sampling rate                            : 48.0 kHz
Bit depth                                : 16 bits
Stream size                              : 44.0 MiB (1%)
Source stream size                       : 44.1 MiB (1%)
Language                                 : English
Encoded date                             : 2014-02-06 12:42:55 UTC
Tagged date                              : 2014-02-06 12:54:54 UTC

Other
ID                                       : 3
Type                                     : Time code
Format                                   : QuickTime TC
Duration                                 : 4 min 0 s
Frame rate                               : 23.976 (23976/1000) FPS
Time code of first frame                 : 00:00:00:00
Time code of last frame                  : 00:04:00:05
Time code, stripped                      : Yes
Language                                 : English
Encoded date                             : 2014-02-06 12:54:54 UTC
Tagged date                              : 2014-02-06 12:54:54 UTC

</pre>
</div><div style="text-align: center">​</div></div>
</div><div style="text-align: center"><br>
<div class="bbCodeBlock bbCodeVfcHH HiddenContent">
<div class="attribution type">Hidden Content:</div>
<blockquote>You must reply before you can see the hidden data contained here.</blockquote>
</div></div>
<div class="messageTextEndMarker">&nbsp;</div>
</blockquote>
</article>]]></description>
                <author><![CDATA[fstambuk]]></author>
                </item>

                
                <item>
                <title><![CDATA[【MASTER &amp; MASTER RIP】MASTER - Spica - Tonight [Master 1080]]]></title>
                <link><![CDATA[https://sharemania.us/threads/spica-tonight-master-1080.239626/]]></link>
                <description><![CDATA[<article>
<blockquote class="messageText SelectQuoteContainer ugc baseHtml">
<div style="text-align: center"><img src="https://i.ibb.co/G2vjB0M/20240309222243.gif" class="bbCodeImage LbImage" alt="[​IMG]" data-url="https://i.ibb.co/G2vjB0M/20240309222243.gif" style=""><br>
​</div>
<div class="ToggleTriggerAnchor bbCodeSpoilerContainer">
<button type="button" class="button bbCodeSpoilerButton ToggleTrigger Tooltip JsOnly" data-target="> .SpoilerTarget"><span>Spoiler: <span class="SpoilerTitle">MASTER</span></span></button>
<div class="SpoilerTarget bbCodeSpoilerText">
<div class="bbCodeBlock bbCodeCode">
<div class="type">Code:</div>
<pre>General
Complete name                            : Spica - Tonight.mov
Format                                   : MPEG-4
Format profile                           : QuickTime
Codec ID                                 : qt   2005.03 (qt  )
File size                                : 1.77 GiB
Duration                                 : 3 min 42 s
Overall bit rate mode                    : Variable
Overall bit rate                         : 68.4 Mb/s
Frame rate                               : 24.000 FPS
Encoded date                             : 2013-08-22 02:57:17 UTC
Tagged date                              : 2013-08-22 03:06:18 UTC
Writing library                          : Apple QuickTime
TIM                                      : 00:00:00:00
TSC                                      : 24
TSZ                                      : 1

Video
ID                                       : 1
Format                                   : AVC
Format/Info                              : Advanced Video Codec
Format profile                           : Main@L5.1
Format settings                          : 2 Ref Frames
Format settings, CABAC                   : No
Format settings, Reference frames        : 2 frames
Format settings, GOP                     : N=1
Format settings, Slice count             : 8 slices per frame
Codec ID                                 : avc1
Codec ID/Info                            : Advanced Video Coding
Duration                                 : 3 min 42 s
Bit rate mode                            : Variable
Bit rate                                 : 66.8 Mb/s
Width                                    : 1 920 pixels
Height                                   : 816 pixels
Display aspect ratio                     : 2.35:1
Frame rate mode                          : Constant
Frame rate                               : 24.000 FPS
Color space                              : YUV
Chroma subsampling                       : 4:2:0
Bit depth                                : 8 bits
Scan type                                : Progressive
Bits/(Pixel*Frame)                       : 1.777
Stream size                              : 1.73 GiB (98%)
Language                                 : English
Encoded date                             : 2013-08-22 02:57:17 UTC
Tagged date                              : 2013-08-22 03:06:18 UTC
Color range                              : Limited
Color primaries                          : BT.709
Transfer characteristics                 : BT.709
Matrix coefficients                      : BT.709
Codec configuration box                  : avcC

Audio
ID                                       : 2
Format                                   : PCM
Format settings                          : Little / Signed
Codec ID                                 : sowt
Duration                                 : 3 min 42 s
Source duration                          : 3 min 42 s
Bit rate mode                            : Constant
Bit rate                                 : 1 536 kb/s
Channel(s)                               : 2 channels
Channel layout                           : L R
Sampling rate                            : 48.0 kHz
Bit depth                                : 16 bits
Stream size                              : 40.7 MiB (2%)
Source stream size                       : 40.7 MiB (2%)
Language                                 : English
Encoded date                             : 2013-08-22 02:57:17 UTC
Tagged date                              : 2013-08-22 03:06:18 UTC

Other
ID                                       : 3
Type                                     : Time code
Format                                   : QuickTime TC
Duration                                 : 3 min 42 s
Frame rate                               : 24.000 FPS
Time code of first frame                 : 00:00:00:00
Time code of last frame                  : 00:03:42:00
Time code, stripped                      : Yes
Language                                 : English
Encoded date                             : 2013-08-22 03:06:18 UTC
Tagged date                              : 2013-08-22 03:06:18 UTC

</pre>
</div><div style="text-align: center">​</div></div>
</div><div style="text-align: center"><br>
<div class="bbCodeBlock bbCodeVfcHH HiddenContent">
<div class="attribution type">Hidden Content:</div>
<blockquote>You must reply before you can see the hidden data contained here.</blockquote>
</div></div>
<div class="messageTextEndMarker">&nbsp;</div>
</blockquote>
</article>]]></description>
                <author><![CDATA[fstambuk]]></author>
                </item>

                </channel></rss>